<svg xmlns="http://www.w3.org/2000/svg" viewBox="0 0 199 113" width="199" height="113">
    <defs>
        <linearGradient id="paint0_linear" gradientUnits="userSpaceOnUse" x1="97.108" y1="45.021" x2="97.73"
            y2="131.203">
            <stop offset="0" stop-color="#ffedf4"></stop>
            <stop offset=".821" stop-color="#ffedf4" stop-opacity="0"></stop>
        </linearGradient>
    </defs>
    <style>
        .address-modal-icon-shp2 {
            fill: #e8b1b4
        }

        .address-modal-icon-shp3 {
            fill: #c6abb1
        }

        .address-modal-icon-shp4 {
            fill: #1d7469
        }

        .address-modal-icon-shp5 {
            fill: #dec6cb
        }

        .address-modal-icon-shp6 {
            opacity: .38;
            fill: #411021
        }

        .address-modal-icon-shp10 {
            fill: #fff
        }

        .address-modal-icon-shp11 {
            fill: #f6677e
        }

        .address-modal-icon-shp14 {
            fill: #fc9aaa
        }
    </style>
    <path id="background"
        d="M199.07 104.68c-12.64-11.47-31.12-23.09-36.67-26.46-.92-.61-1.54-1.68-1.54-2.75l.12-25.75c0-1.53-1.23-2.91-2.77-2.91l-9.7-.6c-1.69-.15-3.08 1.23-3.07 2.77l-.61 11.34c.01 1.53-1.38 2.91-3.07 2.76l-7.23-.3c-1.7 0-2.93-1.37-2.93-3.06l-.23-57.77c0-.92-.77-1.69-1.7-1.68l-13.08-.29c-1.08 0-1.85.77-1.69 1.84l-.43 25.9c0 .76-.92 1.22-1.54.76l-14.32-8.86a3.752 3.752 0 0 0-4 0L75.85 31.75c-1.23.92-2.15 2.3-2.15 3.84l.05 38c0 .46-.31.77-.77.77h-5.39c-.46.01-.77-.3-.77-.76l-.49-23.14c0-1.38-1.08-2.45-2.47-2.45-5.38.01-7.85.17-12 .32a2.763 2.763 0 0 0-2.77 2.77c.01 5.97.03 19.76.04 24.36 0 .92-.62 1.54-1.54 1.69l-4.31.77c-1.08.16-2-.61-2-1.68l.13-17.32c0-.61-.62-1.07-1.08-.92l-6.62-.14c-1.23 0-2.31.92-2.3 2.3l-.43 25.44c0 1.07-.61 2.15-1.69 2.61-2.62 1.23-17.23 7.38-29.22 17.35 24.63 1.96 199-.88 199-.88Z"
        fill="url(#paint0_linear)"></path>
    <g id="person">
        <path
            d="M104.42 112.51c-13.8 0-24.96-1.57-24.96-3.52 0-1.94 11.16-3.51 24.96-3.51 13.81 0 24.96 1.57 24.96 3.51 0 1.95-11.15 3.52-24.96 3.52Z"
            fill="#fdf0f0"></path>
        <path class="address-modal-icon-shp2"
            d="M122.16 48.68s.29-1.78.14-2.96c-.29-1.79-1.19-1.64-1.78-2.68-1.63-2.82-4.31-.89-5.5-1.18-2.38-.6-6.24 4.45-4.16 7.27.15.3 1.93.44 2.08.59 3.27 7.72 9.07 2.38 9.22-1.04Z">
        </path>
        <path class="address-modal-icon-shp3" d="M113.98 51.21c.15 0-1.78 7.71-1.78 7.71l-5.65-1.18 5.5-7.13 1.93.6Z">
        </path>
        <path class="address-modal-icon-shp4"
            d="M109.16 50.27c-.87-.44-1.15-1.63-.63-2.67.52-1.05 1.64-1.54 2.51-1.11.87.43 1.15 1.63.63 2.67-.52 1.05-1.64 1.54-2.51 1.11Z">
        </path>
        <path class="address-modal-icon-shp5"
            d="M115.91 49.13c0-.15 0-.15 0 0 0-1.63-1.34-3.12-2.97-3.12-1.64 0-2.97 1.34-2.97 2.97v.15c0 1.48 1.33 2.97 2.97 2.97 1.63-.15 2.97-1.34 2.97-2.97Z">
        </path>
        <path class="address-modal-icon-shp6"
            d="M113.53 44.53c.3-.74-.14-.74-.44-.15v.15c-.3.74.3.74.44 0ZM113.83 43.04s0-.14 0 0c.3-.74-.15-.74-.44-.14v.14c-.3.6.14.6.44 0ZM115.76 43.64s0-.15 0 0c.3-.74-.15-.74-.44-.15v.15c-.3.59.15.59.44 0ZM112.05 45.72c0-.15 0-.15 0 0 0-.15 0-.15 0 0 .29-.75-.15-.75-.45-.15v.15c-.3.59.15.59.45 0ZM117.4 42.3c.15 0 .15 0 0 0 .15 0 .15 0 0 0 .3-.74-.15-.74-.45-.15v.15c-.14.74.3.6.45 0ZM117.99 43.64c.6-.6.3-.74-.29-.3h-.15c-.45.59-.15.74.44.3ZM121.71 44.97s0-.15 0 0c.45-.59.15-.74-.3-.29v.14c-.59.6-.15.75.3.15ZM117.4 45.57c.59-.45.3-.75-.15-.3h-.15c-.59.45-.29.74.3.3ZM116.51 51.65c.15 0 .15 0 0 0 .15 0 .15 0 0 0 .74.3.44.6-.15.45h-.15c-.6-.3-.3-.75.3-.45ZM117.1 47.79s.15 0 0 0c.74.3.45.6-.15.45h-.14c-.6-.3-.3-.59.29-.45ZM117.99 50.17c.15 0 .15 0 0 0 .15 0 .15 0 0 0 .75.29.45.59-.15.44h-.14c-.6-.29-.3-.59.29-.44ZM118.59 51.8c.15 0 .15 0 0 0 .74.3.44.59-.15.45h-.15c-.59-.3-.3-.6.3-.45ZM119.48 44.53s0-.15 0 0c0-.15 0-.15 0 0 .6-.6.89-.3.45.15-.75.59-1.04.29-.45-.15ZM119.33 42.9c.6-.6.89-.3.45.14-.75.75-1.04.45-.45-.14ZM120.52 47.35c.74-.15.74.3.15.44h-.15c-.74 0-.74-.29 0-.44ZM120.97 48.39c.15 0 .15 0 0 0 .74-.15.74.29.15.44h-.15c-.75.15-.75-.3 0-.44ZM114.28 45.12s0-.15 0 0c.44-.74.74-.44.3.15v.15c-.3.59-.6.3-.3-.3ZM118.44 46.61s0-.15 0 0c.74-.45.89-.15.3.29h-.15c-.6.45-.75 0-.15-.29ZM120.08 51.06s.14.15 0 0c.74.29.59.74-.15.44h-.15c-.6-.44-.3-.74.3-.44ZM116.06 46.46s0-.15 0 0c.74-.45.89-.15.3.29h-.15c-.6.45-.74 0-.15-.29ZM116.66 48.98c.15 0 .15 0 0 0 .74 0 .74.44 0 .44h-.15c-.75 0-.6-.44.15-.44ZM115.76 44.97c0-.14 0-.14 0 0 .3-.74.6-.44.3.15v.15c-.3.59-.59.3-.3-.3Z">
        </path>
        <path d="M111.75 44.23c.15 0 .15 0 0 0 .15 0 .15 0 0 0 .3-.74.59-.44.3.15v.15c-.15.74-.45.44-.3-.3Z"
            opacity=".38" fill="none"></path>
        <path class="address-modal-icon-shp6"
            d="M115.91 52.39c.75 0 .75.45 0 .45h-.15c-.74 0-.59-.45.15-.45ZM119.78 49.72c.15 0 .15 0 0 0 .74-.15.74.15.15.45h-.15c-.75.15-.75-.3 0-.45ZM118.74 48.39s.15 0 0 0c.74-.15.74.14.15.44h-.15c-.75.15-.75-.3 0-.44ZM115.76 50.32c.15 0 .15 0 0 0 .75.14.75.44 0 .44h-.15c-.74-.15-.59-.59.15-.44ZM120.52 46.01c.74-.15.74.15.15.45h-.15c-.74 0-.74-.3 0-.45Z">
        </path>
        <path id="arm-2" class="address-modal-icon-shp3"
            d="M112.64 58.63c-1.93-1.64-4.31.29-11-2.38-3.86-1.48-5.8-4-7.28-5.79-.75-.89-.89-2.22-1.64-3.11-.3-.3-.59-.3-.89-.15-.74.3-.74.74-.74 1.19-.75-.45-1.34-.89-2.23-.15-.3.3-.45.74-.45 1.04-1.34-.3-1.19.89-1.19.89-.44 0-.89.15-1.19.59-.89 1.19.45 2.82 1.04 3.71 3.42 4.31 9.67 11.58 22.15 10.39 2.68-.15 6.99-3.12 3.42-6.23Z">
        </path>
        <g id="leg-1">
            <path class="address-modal-icon-shp5"
                d="M99.26 81.78s-.59 10.09 9.81 11.42c10.41 1.19 16.8 1.93 18.59 4.9 0 0 2.08 2.38 1.93-1.04-.15-3.41.74-8.31-3.42-9.49-4.16-1.19-16.06-.15-15.31-6.09.15-2.08-.15-4.6-.15-9.5l-11.45 9.8Z">
            </path>
            <path d="M99.26 81.78s-.29 3.11.75 4.6c0 0 2.97 1.18 10.7-4.75 0 0 .59-6.38-.15-9.5l-11.3 9.65Z"
                fill="#d8969a"></path>
        </g>
        <path class="address-modal-icon-shp5"
            d="M97.63 76.29s-10.11 1.03-9.66 11.57c.44 10.39 2.22 13.36-2.98 17.36-.89.6-5.2 3.56 2.38 3.42 3.42 0 8.62.89 9.22-3.42.59-4.3-.15-14.84 3.12-20.77l-2.08-8.16Z">
        </path>
        <path id="ballon-3" fill-rule="evenodd"
            d="M77.01 32.09C75.98.49 105.35 5 111.45 13.01c8.55 8.81 6.62 19.19.65 26.86-8.37 10.88-17.31 18.32-26.72 25.53-1.14.8-2.75.23-3.09-1.14-1.72-6.99-5.74-24.73-5.28-32.17Zm14.4-7.83c0 4.11 3.28 7.38 7.39 7.38 4.11 0 7.38-3.27 7.38-7.38 0-4.11-3.27-7.38-7.38-7.38-4.11 0-7.39 3.27-7.39 7.38Z"
            fill="#eb445f"></path>
        <path class="address-modal-icon-shp10"
            d="M109.52 56.4c-1.19-.15-2.23-.3-3.12-.15a5.188 5.188 0 0 0-4.01 2.52C97.92 65.3 89.3 80.29 89.3 80.29l13.23.74c2.23-3.71 6.54-6.53 8.03-9.05 8.47-14.99 2.38-14.99-1.04-15.58Z">
        </path>
        <path class="address-modal-icon-shp11"
            d="M103.42 70.35c-.59-.3-1.04-.74-1.63-1.19-.89-.74-1.78-1.33-2.68-1.63-.59-.15-1.48 0-2.08.15 0-.3.45-.59.3-.89.59-.15 1.04-.3 1.93 0 1.19.3 2.08 1.04 3.12 1.78.45.45 1.04.74 1.49 1.19 2.53 1.48 4.91 1.04 7.88.29 0 .45-.3.45-.59 1.04-2.98.45-4.91 1.04-7.74-.74ZM113.39 66.34c-.45 0-1.19.15-1.34.15-1.34.3-5.8.6-8.48-1.18-1.04-.75-2.38-1.04-3.56-1.34-.15-.3-.15-.59-.3-1.04 1.48.15 2.97.74 4.31 1.48 4.31 2.23 6.69 1.34 7.88 1.04.44-.14 1.49-.14 1.78-.29 0 .44-.15.89-.29 1.18ZM107.59 62.04c1.19.45 5.35.74 6.69.89 0-.3.15-.59.15-.89-1.34-.15-5.21-.59-6.25-1.04l-.59 1.04Z">
        </path>
        <path class="address-modal-icon-shp2"
            d="M95.4 69.91c-3.12 4.89-3.27 5.04-6.39 9.94-.3.59 0 1.33.59 1.33 3.72.75 8.77 2.97 10.26 3.71.3.15.74 0 1.04-.29 6.84-5.49 9.66-7.87 9.66-12.62-7.28.45-13.82-.59-15.16-2.07Z">
        </path>
        <path class="address-modal-icon-shp11"
            d="M114.43 58.48v-.15c-.45 0-.9-.15-1.34-.3-.6-.14-1.19-.44-1.79-.74-1.04-.44-2.23-.89-3.41-.89-.75 0-3.87.89-4.47 1.19-.74.44-.89.74-.74 1.04.6-.3 4.61-1.19 5.21-1.34 1.04 0 1.93.45 2.97.89.59.3 1.19.6 1.93.74.6.15 1.19.3 1.64.3.15-.15 0-.44 0-.74Z">
        </path>
        <g id="arm-1">
            <path class="address-modal-icon-shp5" d="M87.82 47.5s0-.15 0 0c.15 0 .15 0 0 0Z"></path>
            <path class="address-modal-icon-shp5"
                d="M107.59 59.07c-1.64-1.78-4.31-.3-10.56-4.01-3.56-2.07-5.05-4.89-6.24-6.82-.6-1.04-.45-2.38-1.19-3.27-.15-.29-.45-.29-.74-.29-.75.15-.89.59-.89 1.04-.6-.6-1.19-1.04-2.09-.45-.44.3-.59.59-.59.89-1.34-.59-1.34.74-1.49.74-.44-.15-.89 0-1.34.45-1.04 1.04-.14 2.82.45 3.86 2.83 4.89 7.73 13.06 20.22 13.8 2.67 0 7.58-2.38 4.46-5.94Z">
            </path>
            <path class="address-modal-icon-shp5"
                d="M90.94 48.39c.44-.3.89-.45 1.34-.6-.3-.29-.6-.74-.9-1.04-.29.45-.59.75-1.04 1.04-.89.3-.44 1.78.45 1.49.89-.3 1.49-.89 1.93-1.64.3-.59-.3-1.18-.89-1.03-.74.14-1.49.44-2.08 1.03-.6.3.44 1.34 1.19.75Z">
            </path>
        </g>
        <path d="m112.51 45-.7 1.06c3.26 0 3.51 2.11 3.87 3.04l1.05.12c0-3.37-2.81-4.1-4.22-4.22Z" fill="#44a498">
        </path>
        <path fill-rule="evenodd"
            d="M115.68 49.1c-.36-.93-.61-3.04-3.87-3.04l.7-1.06c1.41.12 4.22.85 4.22 4.22l-1.05-.12Zm0 0c0 .04 0 .08-.01.12"
            fill="none" stroke="#44a498"></path>
        <path class="address-modal-icon-shp4"
            d="M114.79 52.38c-.87-.44-1.16-1.63-.64-2.68.52-1.04 1.65-1.53 2.52-1.1.87.43 1.15 1.63.63 2.67-.52 1.05-1.64 1.54-2.51 1.11Z">
        </path>
    </g>
    <g id="ballon-2">
        <path class="address-modal-icon-shp14"
            d="M146.17 26.85c.39 1.43 2.35 4.33 3.61 6.21.54.81 1.97.85 2.58.11 1.85-2.28 3.58-5.04 4-7.5 1.85-10.41-14.07-9.64-10.19 1.18Z">
        </path>
        <path class="address-modal-icon-shp10"
            d="M149.95 21.32c.62.52 1.38.66 1.69.32.31-.34.05-1.03-.57-1.55-.63-.52-1.69-.33-1.69-.33s-.05 1.04.57 1.56ZM151.59 22.34c.2-.09.41-.14.63-.13 1.18 0 2.14 1.02 2.14 2.28 0 .83-.42 1.7-1.03 2.19-.33.26-.7.42-1.11.42-.27 0-.58-.29-1.01-.28-.29 0-.3.26-.61.28-.52 0-.99-.26-1.36-.65a2.99 2.99 0 0 1-.78-1.96c0-1.26.96-2.28 2.14-2.28.21 0 .42.05.61.14.06.03.12.04.19.04s.13-.02.19-.05Z">
        </path>
    </g>
    <g id="ballon-1">
        <path class="address-modal-icon-shp14"
            d="M25.22 36.69c.39 1.43 2.35 4.34 3.62 6.22.54.8 1.96.84 2.57.11 1.85-2.28 3.58-5.04 4-7.51 1.85-10.4-14.07-9.63-10.19 1.18Z">
        </path>
        <path fill-rule="evenodd" class="address-modal-icon-shp10"
            d="m33.68 32.49-3.61 6.5-3.61-6.5a6.646 6.646 0 0 1 3.61-1.06c1.33 0 2.57.39 3.61 1.06Zm-4.16 1.95a.61.61 0 0 0 0-.85.61.61 0 0 0-.85 0 .61.61 0 0 0 0 .85c.24.23.61.23.85 0Zm1.54-1.64c-.23.23-.23.61 0 .84.23.23.61.23.84 0a.58.58 0 0 0 0-.84.58.58 0 0 0-.84 0Zm-.35 4.02c.23-.23.23-.61 0-.84a.598.598 0 0 0-.84 0 .58.58 0 0 0 0 .84c.23.24.61.24.84 0Z">
        </path>
    </g>
</svg>
